<svg width="72" height="69" viewBox="0 0 72 69" fill="none" xmlns="http://www.w3.org/2000/svg">
<g opacity="0.5">
<path opacity="0.4" d="M38.5688 46.0844C38.3678 46.206 38.1404 46.2795 37.9051 46.2914L30.3241 46.675C28.1724 46.7829 26.3215 46.5629 24.6635 46.005C21.0358 44.786 17.9915 42.2455 16.0935 38.8478L9.84257 27.6672C9.12088 26.377 9.28266 24.7291 10.2407 23.5657L18.8239 13.1739C19.3305 12.5512 20.0394 12.1178 20.8141 11.9542L33.6608 9.20264C35.0977 8.89263 36.5489 9.55354 37.268 10.8431L43.5236 22.032C45.4204 25.4237 46.0474 29.4445 45.2907 33.354C44.9433 35.1474 44.2193 36.9453 43.0798 38.8509L39.0638 45.5792C38.9399 45.7891 38.7688 45.9612 38.5688 46.0844Z" fill="#268EEC"/>
<g filter="url(#filter0_f_1_5097)">
<path d="M35.2161 39.4229C35.0798 39.5053 34.9279 39.5593 34.7729 39.5758L29.781 40.1072C28.3642 40.2574 27.1565 40.1946 26.0876 39.917C23.7486 39.3105 21.8398 37.8703 20.7142 35.8593L17.0067 29.2421C16.5786 28.4785 16.7434 27.4609 17.4139 26.7095L23.4197 19.9973C23.7745 19.5954 24.2554 19.3018 24.77 19.1712L33.304 16.9811C34.2586 16.7348 35.1881 17.0837 35.6145 17.847L39.3247 24.4691C40.4498 26.4765 40.7186 28.9195 40.0828 31.3481C39.7909 32.4623 39.2516 33.5938 38.4355 34.8078L35.5592 39.0935C35.4703 39.2272 35.3519 39.3394 35.2161 39.4229Z" fill="#272933"/>
</g>
</g>
<g filter="url(#filter1_b_1_5097)">
<mask id="path-3-outside-1_1_5097" maskUnits="userSpaceOnUse" x="20.3703" y="9.46612" width="52.2438" height="61.1294" fill="black">
<rect fill="white" x="20.3703" y="9.46612" width="52.2438" height="61.1294"/>
<path d="M42.7119 65.3934C42.4068 65.3404 42.1124 65.2147 41.8589 65.019L33.6899 58.7143C31.372 56.9238 29.6269 55.0634 28.3505 53.0275C25.5562 48.5747 24.4177 43.2845 25.1496 38.1295L27.5526 21.1616C27.8296 19.2032 29.3073 17.6592 31.226 17.3146L48.3901 14.2593C49.4105 14.0694 50.4904 14.252 51.4241 14.769L66.9377 23.3016C68.6747 24.2537 69.6547 26.2123 69.3757 28.1677L66.9708 45.1482C66.2424 50.2961 63.6967 54.9661 59.8042 58.2997C58.0183 59.8287 55.8381 61.0296 53.1412 61.9737L43.627 65.3136C43.3315 65.419 43.0174 65.444 42.7119 65.3934Z"/>
</mask>
<path d="M42.7119 65.3934C42.4068 65.3404 42.1124 65.2147 41.8589 65.019L33.6899 58.7143C31.372 56.9238 29.6269 55.0634 28.3505 53.0275C25.5562 48.5747 24.4177 43.2845 25.1496 38.1295L27.5526 21.1616C27.8296 19.2032 29.3073 17.6592 31.226 17.3146L48.3901 14.2593C49.4105 14.0694 50.4904 14.252 51.4241 14.769L66.9377 23.3016C68.6747 24.2537 69.6547 26.2123 69.3757 28.1677L66.9708 45.1482C66.2424 50.2961 63.6967 54.9661 59.8042 58.2997C58.0183 59.8287 55.8381 61.0296 53.1412 61.9737L43.627 65.3136C43.3315 65.419 43.0174 65.444 42.7119 65.3934Z" fill="#1C1E28" fill-opacity="0.17"/>
<path d="M42.5656 66.3827C43.1098 66.4773 43.6165 66.1111 43.6973 65.5648C43.7781 65.0185 43.4024 64.4989 42.8582 64.4042L42.5656 66.3827ZM41.8589 65.019L42.4525 64.2274L42.4525 64.2274L41.8589 65.019ZM33.6899 58.7143L33.0959 59.5056L33.0963 59.5059L33.6899 58.7143ZM28.3505 53.0275L29.189 52.506L29.1888 52.5057L28.3505 53.0275ZM25.1496 38.1295L26.1359 38.2952L26.1359 38.2948L25.1496 38.1295ZM27.5526 21.1616L28.5389 21.3268L28.5389 21.3266L27.5526 21.1616ZM31.226 17.3146L31.0298 16.3258L31.0283 16.326L31.226 17.3146ZM48.3901 14.2593L48.5862 15.2481L48.5938 15.2467L48.3901 14.2593ZM51.4241 14.769L50.9607 15.6462L50.9632 15.6476L51.4241 14.769ZM66.9377 23.3016L66.4769 24.1802L66.4782 24.1809L66.9377 23.3016ZM69.3757 28.1677L68.3895 28.0014L68.3894 28.0025L69.3757 28.1677ZM66.9708 45.1482L65.9845 44.983L65.9845 44.9831L66.9708 45.1482ZM59.8042 58.2997L60.4597 59.0714L60.4598 59.0713L59.8042 58.2997ZM53.1412 61.9737L52.7943 61.0245L52.7935 61.0247L53.1412 61.9737ZM43.627 65.3136L43.2792 64.3647L43.2748 64.3662L43.627 65.3136ZM42.8502 64.4028C42.3053 64.3127 41.8017 64.6831 41.7254 65.2302C41.649 65.7772 42.0288 66.2938 42.5736 66.384L42.8502 64.4028ZM42.8582 64.4042C42.7083 64.3781 42.5689 64.3173 42.4525 64.2274L41.2653 65.8106C41.6559 66.1121 42.1053 66.3026 42.5656 66.3827L42.8582 64.4042ZM42.4525 64.2274L34.2834 57.9226L33.0963 59.5059L41.2653 65.8106L42.4525 64.2274ZM34.2838 57.9229C32.0424 56.1915 30.388 54.4184 29.189 52.506L27.512 53.549C28.8658 55.7083 30.7017 57.6561 33.0959 59.5056L34.2838 57.9229ZM29.1888 52.5057C26.5239 48.2589 25.4376 43.2128 26.1359 38.2952L24.1634 37.9639C23.3977 43.3563 24.5886 48.8905 27.5122 53.5494L29.1888 52.5057ZM26.1359 38.2948L28.5389 21.3268L26.5664 20.9963L24.1634 37.9643L26.1359 38.2948ZM28.5389 21.3266C28.7569 19.7857 29.9203 18.5731 31.4236 18.3031L31.0283 16.326C28.6944 16.7452 26.9023 18.6207 26.5663 20.9965L28.5389 21.3266ZM31.4221 18.3033L48.5862 15.2481L48.194 13.2705L31.0298 16.3258L31.4221 18.3033ZM48.5938 15.2467C49.3836 15.0997 50.228 15.2405 50.9607 15.6462L51.8874 13.8917C50.7527 13.2635 49.4374 13.0391 48.1864 13.2719L48.5938 15.2467ZM50.9632 15.6476L66.4769 24.1802L67.3986 22.423L51.8849 13.8904L50.9632 15.6476ZM66.4782 24.1809C67.8365 24.9254 68.6091 26.4628 68.3895 28.0014L70.3618 28.3341C70.7003 25.9617 69.513 23.5819 67.3973 22.4223L66.4782 24.1809ZM68.3894 28.0025L65.9845 44.983L67.9571 45.3135L70.3619 28.333L68.3894 28.0025ZM65.9845 44.9831C65.2897 49.894 62.8611 54.3487 59.1485 57.5282L60.4598 59.0713C64.5323 55.5836 67.1952 50.6983 67.9571 45.3134L65.9845 44.9831ZM59.1487 57.5281C57.471 58.9644 55.4018 60.1116 52.7943 61.0245L53.4882 62.9229C56.2744 61.9476 58.5655 60.6931 60.4597 59.0714L59.1487 57.5281ZM52.7935 61.0247L43.2792 64.3647L43.9748 66.2626L53.489 62.9227L52.7935 61.0247ZM43.2748 64.3662C43.1391 64.4146 42.9939 64.4266 42.8502 64.4028L42.5736 66.384C43.0409 66.4613 43.5239 66.4233 43.9792 66.261L43.2748 64.3662Z" fill="url(#paint0_linear_1_5097)" mask="url(#path-3-outside-1_1_5097)"/>
</g>
<g filter="url(#filter2_bd_1_5097)">
<path d="M42.7427 49.264L45.0585 33.6148L38.301 38.7099C37.4814 39.3006 36.3631 39.1064 35.7551 38.2677C35.1709 37.4332 35.3459 36.2502 36.1417 35.6554L46.439 27.9144C47.2073 27.34 48.397 27.5467 48.9611 28.3524L56.5086 39.1932C57.0928 40.0277 56.9178 41.2107 56.122 41.8055C55.714 42.0885 55.2304 42.2067 54.7807 42.1286C54.3287 42.0501 53.882 41.7703 53.5999 41.3674L48.6275 34.2348L46.3117 49.8839C46.1585 50.919 45.253 51.5958 44.2536 51.4223C43.2781 51.2528 42.5895 50.299 42.7427 49.264Z" fill="#268EEC"/>
<path d="M45.1934 33.3863L45.1571 33.632L42.8412 49.2811C42.6958 50.2636 43.3492 51.1637 44.2683 51.3233C45.2103 51.487 46.0676 50.8502 46.2131 49.8668L48.5289 34.2177L48.5652 33.9727L48.7086 34.1784L53.6809 41.3108L45.1934 33.3863ZM45.1934 33.3863L44.9976 33.5339M45.1934 33.3863L44.9976 33.5339M44.9976 33.5339L38.2409 38.6284M44.9976 33.5339L38.2409 38.6284M38.2409 38.6284C37.4658 39.1864 36.4107 39.0031 35.8356 38.2104C35.2833 37.4207 35.4494 36.2993 36.2023 35.7365L36.2025 35.7364L46.4996 27.9955C46.4996 27.9954 46.4997 27.9954 46.4998 27.9954C47.2234 27.4546 48.3487 27.6501 48.88 28.4088C48.8801 28.4089 48.8801 28.4089 48.8801 28.409L56.4275 39.2495L56.4276 39.2497C56.9802 40.039 56.8147 41.1601 56.0628 41.7233C55.6735 41.9929 55.216 42.1028 54.7954 42.0297C54.3701 41.9558 53.9474 41.6914 53.681 41.311L38.2409 38.6284Z" stroke="#268EEC" stroke-width="0.2"/>
</g>
<defs>
<filter id="filter0_f_1_5097" x="0.770508" y="0.903076" width="55.6497" height="55.2834" filterUnits="userSpaceOnUse" color-interpolation-filters="sRGB">
<feFlood flood-opacity="0" result="BackgroundImageFix"/>
<feBlend mode="normal" in="SourceGraphic" in2="BackgroundImageFix" result="shape"/>
<feGaussianBlur stdDeviation="8" result="effect1_foregroundBlur_1_5097"/>
</filter>
<filter id="filter1_b_1_5097" x="-0.0629883" y="-10.8179" width="94.4819" height="101.24" filterUnits="userSpaceOnUse" color-interpolation-filters="sRGB">
<feFlood flood-opacity="0" result="BackgroundImageFix"/>
<feGaussianBlur in="BackgroundImageFix" stdDeviation="12"/>
<feComposite in2="SourceAlpha" operator="in" result="effect1_backgroundBlur_1_5097"/>
<feBlend mode="normal" in="SourceGraphic" in2="effect1_backgroundBlur_1_5097" result="shape"/>
</filter>
<filter id="filter2_bd_1_5097" x="20.4097" y="12.5879" width="51.4443" height="53.8616" filterUnits="userSpaceOnUse" color-interpolation-filters="sRGB">
<feFlood flood-opacity="0" result="BackgroundImageFix"/>
<feGaussianBlur in="BackgroundImageFix" stdDeviation="7.5"/>
<feComposite in2="SourceAlpha" operator="in" result="effect1_backgroundBlur_1_5097"/>
<feColorMatrix in="SourceAlpha" type="matrix" values="0 0 0 0 0 0 0 0 0 0 0 0 0 0 0 0 0 0 127 0" result="hardAlpha"/>
<feOffset dx="5" dy="5"/>
<feGaussianBlur stdDeviation="5"/>
<feColorMatrix type="matrix" values="0 0 0 0 0.00761719 0 0 0 0 0.00761719 0 0 0 0 0.00761719 0 0 0 0.5 0"/>
<feBlend mode="normal" in2="effect1_backgroundBlur_1_5097" result="effect2_dropShadow_1_5097"/>
<feBlend mode="normal" in="SourceGraphic" in2="effect2_dropShadow_1_5097" result="shape"/>
</filter>
<linearGradient id="paint0_linear_1_5097" x1="29.1108" y1="10.6267" x2="71.9766" y2="17.7665" gradientUnits="userSpaceOnUse">
<stop stop-color="#5484FF"/>
<stop offset="1" stop-color="#0CC3CF"/>
</linearGradient>
</defs>
</svg>
